<?xml version="1.0" encoding="UTF-8" standalone="no"?>
<svg width="50px" height="50px" viewBox="0 0 50 50" version="1.1" xmlns="http://www.w3.org/2000/svg" xmlns:xlink="http://www.w3.org/1999/xlink">
    <!-- Generator: Sketch 44 (41411) - http://www.bohemiancoding.com/sketch -->
    <title>email-button</title>
    <desc>Created with Sketch.</desc>
    <defs></defs>
    <g id="Page-1" stroke="none" stroke-width="1" fill="none" fill-rule="evenodd">
        <g id="Design1" transform="translate(-685.000000, -455.000000)" fill-rule="nonzero" fill="#FFFFFF">
            <g id="Content" transform="translate(468.000000, 352.000000)">
                <g id="Icons" transform="translate(77.000000, 103.000000)">
                    <g id="email-button" transform="translate(140.000000, 0.000000)">
                        <path d="M39.7217557,17.0366071 L39.7217557,14.9808673 C39.7217557,13.9242347 38.8673028,13.067602 37.8133588,13.067602 L12.1381679,13.067602 C11.0842239,13.067602 10.229771,13.9242347 10.229771,14.9808673 L10.229771,35.0980867 C10.229771,36.1547194 11.0842239,37.011352 12.1381679,37.011352 L37.8133588,37.011352 C38.8673028,37.011352 39.7217557,36.1547194 39.7217557,35.0980867 L39.7217557,17.041199 C39.7217557,17.0396684 39.7217557,17.0381378 39.7217557,17.0366071 Z M34.2320611,16.8941327 L24.9860051,22.1118622 L15.9382952,16.8941327 L34.2320611,16.8941327 Z M14.0465649,33.1848214 L14.0465649,20.217602 L24.024173,25.9716837 C24.3185751,26.1415816 24.6470738,26.2265306 24.9756997,26.2265306 C25.2983461,26.2265306 25.6211196,26.1445153 25.9117048,25.9804847 L35.9048346,20.3410714 L35.9048346,33.1846939 L14.0465649,33.1846939 L14.0465649,33.1848214 Z" id="Shape"></path>
                        <path d="M39.5705771,0 L10.4294229,0 C4.67856961,0 0,4.70081533 0,10.4790128 L0,39.5209872 C0,45.2990567 4.67856961,50 10.4294229,50 L39.5705771,50 C45.321303,50 50,45.2991847 50,39.5209872 L50,10.4790128 C49.9998727,4.70081533 45.321303,0 39.5705771,0 Z M46.1793846,39.5209872 C46.1793846,43.1824231 43.214686,46.1613463 39.5704498,46.1613463 L10.4294229,46.1613463 C6.78518669,46.1612183 3.820488,43.1824231 3.820488,39.5209872 L3.820488,10.4790128 C3.820488,6.81744898 6.78518669,3.83865371 10.4294229,3.83865371 L39.5705771,3.83865371 C43.214686,3.83865371 46.179512,6.81744898 46.179512,10.4790128 L46.179512,39.5209872 L46.1793846,39.5209872 Z" id="Shape"></path>
                    </g>
                </g>
            </g>
        </g>
    </g>
</svg>