<?xml version="1.0" encoding="UTF-8" standalone="no"?>
<svg width="50px" height="50px" viewBox="0 0 50 50" version="1.1" xmlns="http://www.w3.org/2000/svg" xmlns:xlink="http://www.w3.org/1999/xlink">
    <!-- Generator: Sketch 44 (41411) - http://www.bohemiancoding.com/sketch -->
    <title>linkedin</title>
    <desc>Created with Sketch.</desc>
    <defs></defs>
    <g id="Page-1" stroke="none" stroke-width="1" fill="none" fill-rule="evenodd">
        <g id="Design1" transform="translate(-615.000000, -455.000000)" fill="#FFFFFF">
            <g id="Content" transform="translate(468.000000, 352.000000)">
                <g id="Icons" transform="translate(77.000000, 103.000000)">
                    <g id="linkedin" transform="translate(70.000000, 0.000000)">
                        <path d="M42.6,42.609375 L35.19375,42.609375 L35.19375,31.00625 C35.19375,28.2375 35.1375,24.678125 31.3375,24.678125 C27.478125,24.678125 26.8875,27.690625 26.8875,30.803125 L26.8875,42.609375 L19.48125,42.609375 L19.48125,18.75 L26.59375,18.75 L26.59375,22 L26.6875,22 C27.68125,20.125 30.1,18.146875 33.709375,18.146875 C41.209375,18.146875 42.6,23.084375 42.6,29.5125 L42.6,42.6 L42.6,42.609375 Z M11.11875,15.484375 C8.7375,15.484375 6.81875,13.55625 6.81875,11.18125 C6.81875,8.8125 8.7375,6.884375 11.11875,6.884375 C13.49375,6.884375 15.41875,8.8125 15.41875,11.18125 C15.41875,13.55625 13.490625,15.484375 11.11875,15.484375 Z M14.83125,42.609375 L7.40625,42.609375 L7.40625,18.75 L14.83125,18.75 L14.83125,42.609375 L14.83125,42.609375 Z M46.3,0 L3.6875,0 C1.65,0 0,1.6125 0,3.603125 L0,46.396875 C0,48.3875 1.65,50 3.6875,50 L46.296875,50 C48.334375,50 50,48.3875 50,46.396875 L50,3.603125 C50,1.6125 48.334375,0 46.296875,0 L46.3,0 Z" id="Shape"></path>
                    </g>
                </g>
            </g>
        </g>
    </g>
</svg>